<svg xmlns="http://www.w3.org/2000/svg" xmlns:xlink="http://www.w3.org/1999/xlink" fill="none" height="38" width="106" viewBox="0 0 106 38"><rect id="backgroundrect" width="100%" height="100%" x="0" y="0" fill="none" stroke="none"/><linearGradient id="a" x1="0.22226396203041077" x2="0.7222062349319458" y1="0.012183480896055698" y2="0.9878247976303101"><stop offset="0" stop-color="#ebc77a"/><stop offset=".541667" stop-color="#ca3f8d"/><stop offset="1" stop-color="#5142fc"/></linearGradient><g class="currentLayer" style=""><title>Layer 1</title><path d="m17.371626708602903,5.864872763977051 v20.36364 h-3.7188 l-8.8594,-12.8168 h-0.1491 v12.8168 h-4.3054 v-20.36364 h3.7784 l8.7898,12.80684 h0.1789000000000014 v-12.80684 zm3.5571,20.36364 v-20.36364 h13.483 v3.54974 h-9.1776 v4.8523 h8.2827 v3.5497 h-8.2827 v8.4119 zm15.6034,-16.8139 v-3.54974 h16.7249 v3.54974 h-6.2349 v16.8139 h-4.2557 v-16.8139 z" fill="#fff" id="svg_1" class=""/><path d="m86.81223302879334,4.665982763977051 c0.7087000000000033,-3.98935 -4.3235,-6.34062 -6.9289000000000005,-3.23757 l-11.14402,13.2728 c-2.1624,2.5755 -0.33139000000000207,6.5037 3.03149,6.5037 h6.69993 l-1.17,6.5864 c-0.7087000000000033,3.9893 4.3234,6.3406 6.9287,3.2376 l11.1443,-13.2728 c2.1624,-2.5754 0.3314000000000022,-6.5036000000000005 -3.0316,-6.5036000000000005 h-6.6999 z" fill="url(#a)" id="svg_2" class=""/></g></svg>